Coordinates
version=1
nRows=12
nColumns=46
inDegrees=yes

Units are S.I. units (second, meters, Newtons, ...)
Angles are in degrees.

endheader
time	pelvis_tilt	pelvis_list	pelvis_rotation	pelvis_tx	pelvis_ty	pelvis_tz	bb_angle	bb_tx	bb_ty	bb_tz	hip_flexion_r	hip_adduction_r	hip_rotation_r	knee_angle_r	knee_angle_r_beta	ankle_angle_r	subtalar_angle_r	mtp_angle_r	crank_angle_r	hip_flexion_l	hip_adduction_l	hip_rotation_l	knee_angle_l	knee_angle_l_beta	ankle_angle_l	subtalar_angle_l	mtp_angle_l	crank_angle_l	lumbar_extension	lumbar_bending	lumbar_rotation	arm_flex_r	arm_add_r	arm_rot_r	elbow_flex_r	pro_sup_r	wrist_flex_r	wrist_dev_r	arm_flex_l	arm_add_l	arm_rot_l	elbow_flex_l	pro_sup_l	wrist_flex_l	wrist_dev_l
      7.50500000	    -22.60779999	      7.53716237	      8.82035620	      0.26601523	      1.22724483	     -0.19296194	      0.00000000	      0.50000000	      0.00000000	      0.25000000	     36.78588962	    -15.91714034	    -10.85805497	     38.47105528	      0.67144658	    -12.79965919	      0.45218763	      0.00000000	      0.00000000	     79.96909666	     -5.40662672	     -6.22096639	     90.99799825	      1.58821468	     17.94271410	     13.91091029	      0.00000000	      0.00000000	    -59.47405795	     -4.45613433	     -5.45070388	     75.29148424	    -20.62342632	     34.32859698	     47.15271778	     44.93162066	      0.00000000	      0.00000000	     86.46910789	     -6.83512169	     52.16071816	     35.85648605	     41.71501137	      0.00000000	      0.00000000
      7.51000000	    -22.77034107	      7.38050772	      8.57779905	      0.26588595	      1.22904836	     -0.19332577	      0.00000000	      0.50000000	      0.00000000	      0.25000000	     37.90061990	    -15.88760568	    -10.31691759	     40.74905487	      0.71120517	    -12.76693707	     -0.27403954	      0.00000000	      0.00000000	     79.27067450	     -5.23128715	     -6.32613999	     88.89254259	      1.55146755	     18.17692533	     13.36152547	      0.00000000	      0.00000000	    -59.56439714	     -4.53548023	     -5.22557621	     75.55447910	    -20.66046588	     34.46585608	     46.92251957	     44.91851150	      0.00000000	      0.00000000	     86.41322973	     -6.65062404	     51.50379132	     36.22544482	     41.67737016	      0.00000000	      0.00000000
      7.51500000	    -22.85325299	      6.98839671	      8.19962367	      0.26581864	      1.23059670	     -0.19351735	      0.00000000	      0.50000000	      0.00000000	      0.25000000	     39.00612709	    -15.54963999	     -9.79110849	     43.06399433	      0.75160849	    -12.79605704	     -0.72369576	      0.00000000	      0.00000000	     78.53515089	     -5.29447427	     -6.25185520	     86.79473577	      1.51485391	     18.16058570	     12.84608235	      0.00000000	      0.00000000	    -59.55498797	     -4.41178026	     -5.01431718	     76.37973745	    -20.22123641	     35.70363318	     45.77957726	     44.96316326	      0.00000000	      0.00000000	     85.30267260	     -6.29256797	     47.18939073	     37.37165912	     41.25284995	      0.00000000	      0.00000000
      7.52000000	    -22.87914896	      6.61393292	      7.84801584	      0.26581625	      1.23210716	     -0.19377676	      0.00000000	      0.50000000	      0.00000000	      0.25000000	     40.09115536	    -15.24647736	     -9.27999006	     45.42538505	      0.79282253	    -12.81877674	     -1.16973289	      0.00000000	      0.00000000	     77.65106322	     -5.31276380	     -6.16132527	     84.56977537	      1.47602103	     18.06911986	     12.49760233	      0.00000000	      0.00000000	    -59.63762024	     -4.37053937	     -4.55227480	     76.66586389	    -20.21864432	     35.72836063	     45.66322703	     44.95615194	      0.00000000	      0.00000000	     85.25280872	     -6.16563184	     46.95887667	     37.49324823	     41.24125588	      0.00000000	      0.00000000
      7.52500000	    -22.78129894	      6.46152802	      7.57964333	      0.26568724	      1.23400994	     -0.19367017	      0.00000000	      0.50000000	      0.00000000	      0.25000000	     41.08240600	    -15.14615529	     -8.68420927	     47.79524315	      0.83418436	    -12.87749929	     -1.54524273	      0.00000000	      0.00000000	     76.45535221	     -5.12759606	     -6.24409445	     82.11095458	      1.43310651	     17.73054852	     11.81442012	      0.00000000	      0.00000000	    -59.91722713	     -4.41675407	     -4.34923894	     77.00418743	    -20.13009489	     35.80126834	     45.47811609	     44.94331326	      0.00000000	      0.00000000	     85.29653327	     -6.03927221	     46.53224583	     37.58191816	     41.19574669	      0.00000000	      0.00000000
      7.53000000	    -22.66915369	      6.15393953	      7.45329584	      0.26604797	      1.23568964	     -0.19329375	      0.00000000	      0.50000000	      0.00000000	      0.25000000	     41.96879515	    -14.96951104	     -8.34691106	     50.13084916	      0.87494837	    -12.82679860	     -1.96103459	      0.00000000	      0.00000000	     75.24704274	     -5.00682138	     -6.14980285	     79.64733495	      1.39010824	     17.29476550	     11.55153127	      0.00000000	      0.00000000	    -60.16095954	     -4.25114355	     -4.04259764	     77.30397118	    -20.01940643	     35.79989796	     45.38526128	     44.92926689	      0.00000000	      0.00000000	     85.29830572	     -5.97490621	     46.27103197	     37.63384436	     41.16838181	      0.00000000	      0.00000000
      7.53500000	    -22.61814971	      5.75013625	      7.05025523	      0.26625555	      1.23688557	     -0.19364546	      0.00000000	      0.50000000	      0.00000000	      0.25000000	     43.05724953	    -14.63041166	     -7.86959095	     52.48063123	      0.91595981	    -12.83794363	     -1.99439461	      0.00000000	      0.00000000	     74.09622782	     -4.97384859	     -5.96160503	     77.20626525	      1.34750353	     16.78880200	     10.75515528	      0.00000000	      0.00000000	    -60.25419340	     -4.21092791	     -3.62666133	     77.55511672	    -19.85034495	     35.89583383	     45.10195326	     44.89999835	      0.00000000	      0.00000000	     85.19406721	     -5.88811254	     45.74662339	     37.69829851	     41.10915033	      0.00000000	      0.00000000
      7.54000000	    -22.51157872	      4.98638674	      6.38777707	      0.26653867	      1.23739350	     -0.19474903	      0.00000000	      0.50000000	      0.00000000	      0.25000000	     44.13155301	    -13.89472752	     -7.49556381	     54.81213855	      0.95665229	    -12.81741145	     -1.90951274	      0.00000000	      0.00000000	     73.06558931	     -5.33616428	     -5.53325726	     75.07978856	      1.31038951	     16.39061516	     10.05755068	      0.00000000	      0.00000000	    -60.21289210	     -3.95347786	     -2.74675506	     77.91657840	    -19.68742858	     36.01793648	     44.89665200	     44.88230365	      0.00000000	      0.00000000	     84.89548587	     -5.84759012	     45.28958983	     37.74236509	     41.06026327	      0.00000000	      0.00000000
      7.54500000	    -22.45280129	      4.34845177	      5.84239798	      0.26686631	      1.23774507	     -0.19551319	      0.00000000	      0.50000000	      0.00000000	      0.25000000	     45.26226205	    -13.30397676	     -7.11627738	     57.17103721	      0.99782284	    -12.87794424	     -1.87726815	      0.00000000	      0.00000000	     71.98220584	     -5.59981046	     -5.18852326	     72.87051877	      1.27183048	     15.80874033	      9.25231753	      0.00000000	      0.00000000	    -60.16212726	     -3.72614217	     -1.97390027	     78.21906603	    -19.58626459	     36.17620750	     44.66550265	     44.86559248	      0.00000000	      0.00000000	     84.55143453	     -5.76128351	     44.80536471	     37.81145271	     41.01353795	      0.00000000	      0.00000000
      7.55000000	    -22.37693991	      3.72050963	      5.36067114	      0.26740887	      1.23805936	     -0.19618620	      0.00000000	      0.50000000	      0.00000000	      0.25000000	     46.35032396	    -12.75280886	     -6.83439271	     59.50210410	      1.03850763	    -12.70825566	     -1.90981185	      0.00000000	      0.00000000	     70.80094958	     -5.84489118	     -4.86594290	     70.61707942	      1.23250054	     15.15873088	      8.52116860	      0.00000000	      0.00000000	    -60.11290549	     -3.46215974	     -1.23780323	     78.42335843	    -19.47900475	     36.37780928	     44.44843323	     44.85742561	      0.00000000	      0.00000000	     84.18656733	     -5.71080447	     44.29870356	     37.87391095	     40.96461973	      0.00000000	      0.00000000
      7.55500000	    -22.33826890	      3.27179146	      4.95146604	      0.26809199	      1.23841786	     -0.19705778	      0.00000000	      0.50000000	      0.00000000	      0.25000000	     47.47288951	    -12.44020190	     -6.52345893	     61.81164399	      1.07881670	    -12.53704273	     -1.65543137	      0.00000000	      0.00000000	     69.51634265	     -5.92765299	     -4.70387280	     68.24957899	      1.19117987	     14.34562010	      7.61591433	      0.00000000	      0.00000000	    -60.06540007	     -3.26971680	     -0.69418449	     78.54793642	    -19.40313726	     36.74276215	     44.07513285	     44.84907169	      0.00000000	      0.00000000	     83.78014108	     -5.58297765	     43.44135782	     38.03666319	     40.89023526	      0.00000000	      0.00000000
      7.56000000	    -22.13418675	      2.77105563	      4.60945759	      0.26892987	      1.23869936	     -0.19794758	      0.00000000	      0.50000000	      0.00000000	      0.25000000	     48.39700884	    -12.14957498	     -6.38273108	     64.13073241	      1.11929243	    -12.23177983	     -1.28665506	      0.00000000	      0.00000000	     68.05996792	     -6.00155073	     -4.39283445	     65.92584927	      1.15062313	     13.51795119	      6.92342356	      0.00000000	      0.00000000	    -60.11187664	     -2.97040240	     -0.17034549	     78.75809500	    -19.27570497	     37.22894277	     43.71048200	     44.85954058	      0.00000000	      0.00000000	     83.29176443	     -5.49459482	     42.30868518	     38.23211844	     40.79268862	      0.00000000	      0.00000000
